<svg width="26" height="27" viewBox="0 0 26 27" fill="none" xmlns="http://www.w3.org/2000/svg">
<g filter="url(#filter0_d_96_5946)">
<path d="M12.9583 18.9577C8.01667 18.9577 4 14.941 4 9.99935C4 5.05768 8.01667 1.04102 12.9583 1.04102C17.9 1.04102 21.9167 5.05768 21.9167 9.99935C21.9167 14.941 17.9 18.9577 12.9583 18.9577ZM12.9583 2.29102C8.70833 2.29102 5.25 5.74935 5.25 9.99935C5.25 14.2493 8.70833 17.7077 12.9583 17.7077C17.2083 17.7077 20.6667 14.2493 20.6667 9.99935C20.6667 5.74935 17.2083 2.29102 12.9583 2.29102Z" fill="#1B5E37"/>
<path d="M12.9584 11.4577C12.6167 11.4577 12.3334 11.1743 12.3334 10.8327V6.66602C12.3334 6.32435 12.6167 6.04102 12.9584 6.04102C13.3 6.04102 13.5834 6.32435 13.5834 6.66602V10.8327C13.5834 11.1743 13.3 11.4577 12.9584 11.4577Z" fill="#1B5E37"/>
<path d="M12.9583 14.1664C12.85 14.1664 12.7417 14.1414 12.6417 14.0997C12.5417 14.0581 12.45 13.9997 12.3667 13.9247C12.2917 13.8414 12.2333 13.7581 12.1917 13.6497C12.15 13.5497 12.125 13.4414 12.125 13.3331C12.125 13.2247 12.15 13.1164 12.1917 13.0164C12.2333 12.9164 12.2917 12.8247 12.3667 12.7414C12.45 12.6664 12.5417 12.6081 12.6417 12.5664C12.8417 12.4831 13.075 12.4831 13.275 12.5664C13.375 12.6081 13.4667 12.6664 13.55 12.7414C13.625 12.8247 13.6833 12.9164 13.725 13.0164C13.7667 13.1164 13.7917 13.2247 13.7917 13.3331C13.7917 13.4414 13.7667 13.5497 13.725 13.6497C13.6833 13.7581 13.625 13.8414 13.55 13.9247C13.4667 13.9997 13.375 14.0581 13.275 14.0997C13.175 14.1414 13.0667 14.1664 12.9583 14.1664Z" fill="#1B5E37"/>
</g>
<defs>
<filter id="filter0_d_96_5946" x="-1.04163" y="0" width="28" height="28" filterUnits="userSpaceOnUse" color-interpolation-filters="sRGB">
<feFlood flood-opacity="0" result="BackgroundImageFix"/>
<feColorMatrix in="SourceAlpha" type="matrix" values="0 0 0 0 0 0 0 0 0 0 0 0 0 0 0 0 0 0 127 0" result="hardAlpha"/>
<feOffset dy="4"/>
<feGaussianBlur stdDeviation="2"/>
<feComposite in2="hardAlpha" operator="out"/>
<feColorMatrix type="matrix" values="0 0 0 0 0 0 0 0 0 0 0 0 0 0 0 0 0 0 0.25 0"/>
<feBlend mode="normal" in2="BackgroundImageFix" result="effect1_dropShadow_96_5946"/>
<feBlend mode="normal" in="SourceGraphic" in2="effect1_dropShadow_96_5946" result="shape"/>
</filter>
</defs>
</svg>
